<?xml version="1.0" encoding="UTF-8" standalone="no"?><svg xmlns="http://www.w3.org/2000/svg" xmlns:xlink="http://www.w3.org/1999/xlink" contentScriptType="application/ecmascript" contentStyleType="text/css" height="190px" preserveAspectRatio="none" style="width:212px;height:190px;" version="1.1" viewBox="0 0 212 190" width="212px" zoomAndPan="magnify"><defs><filter height="300%" id="f1jc6ge025p7d5" width="300%" x="-1" y="-1"><feGaussianBlur result="blurOut" stdDeviation="2.0"/><feColorMatrix in="blurOut" result="blurOut2" type="matrix" values="0 0 0 0 0 0 0 0 0 0 0 0 0 0 0 0 0 0 .4 0"/><feOffset dx="4.0" dy="4.0" in="blurOut2" result="blurOut3"/><feBlend in="SourceGraphic" in2="blurOut3" mode="normal"/></filter></defs><g><!--MD5=[218a676b317b072d219fb2ceb354cbb9]
class gRPCFilter--><rect codeLine="2" fill="#FEFECE" filter="url(#f1jc6ge025p7d5)" height="60.9551" id="gRPCFilter" style="stroke:#A80036;stroke-width:1.5;" width="191" x="7" y="7"/><ellipse cx="69.25" cy="23" fill="#ADD1B2" rx="11" ry="11" style="stroke:#A80036;stroke-width:1.0;"/><path d="M71.7231,29.1431 Q71.1421,29.4419 70.5029,29.5913 Q69.8638,29.7407 69.1582,29.7407 Q66.6514,29.7407 65.3315,28.0889 Q64.0117,26.437 64.0117,23.3159 Q64.0117,20.1865 65.3315,18.5347 Q66.6514,16.8828 69.1582,16.8828 Q69.8638,16.8828 70.5112,17.0322 Q71.1587,17.1816 71.7231,17.4805 L71.7231,20.2031 Q71.0923,19.6221 70.4988,19.3523 Q69.9053,19.0825 69.2744,19.0825 Q67.9297,19.0825 67.2449,20.1492 Q66.5601,21.2158 66.5601,23.3159 Q66.5601,25.4077 67.2449,26.4744 Q67.9297,27.541 69.2744,27.541 Q69.9053,27.541 70.4988,27.2712 Q71.0923,27.0015 71.7231,26.4204 Z " fill="#000000"/><text fill="#000000" font-family="sans-serif" font-size="12" lengthAdjust="spacing" textLength="58" x="89.75" y="27.5352">gRPCFilter</text><line style="stroke:#A80036;stroke-width:1.5;" x1="8" x2="197" y1="39" y2="39"/><line style="stroke:#A80036;stroke-width:1.5;" x1="8" x2="197" y1="47" y2="47"/><text fill="#000000" font-family="sans-serif" font-size="11" lengthAdjust="spacing" textLength="179" x="13" y="61.6348">filterImage:(NSString*)menuName</text><!--MD5=[ac1fdfe96ee2ebc020ab4ab3218ebe2a]
class test--><rect fill="#FEFECE" filter="url(#f1jc6ge025p7d5)" height="48" id="test" style="stroke:#A80036;stroke-width:1.5;" width="53" x="76" y="128"/><ellipse cx="91" cy="144" fill="#ADD1B2" rx="11" ry="11" style="stroke:#A80036;stroke-width:1.0;"/><path d="M93.4731,150.1431 Q92.8921,150.4419 92.2529,150.5913 Q91.6138,150.7407 90.9082,150.7407 Q88.4014,150.7407 87.0815,149.0889 Q85.7617,147.437 85.7617,144.3159 Q85.7617,141.1865 87.0815,139.5347 Q88.4014,137.8828 90.9082,137.8828 Q91.6138,137.8828 92.2612,138.0322 Q92.9087,138.1816 93.4731,138.4805 L93.4731,141.2031 Q92.8423,140.6221 92.2488,140.3523 Q91.6553,140.0825 91.0244,140.0825 Q89.6797,140.0825 88.9949,141.1492 Q88.3101,142.2158 88.3101,144.3159 Q88.3101,146.4077 88.9949,147.4744 Q89.6797,148.541 91.0244,148.541 Q91.6553,148.541 92.2488,148.2712 Q92.8423,148.0015 93.4731,147.4204 Z " fill="#000000"/><text fill="#000000" font-family="sans-serif" font-size="12" lengthAdjust="spacing" textLength="21" x="105" y="148.5352">test</text><line style="stroke:#A80036;stroke-width:1.5;" x1="77" x2="128" y1="160" y2="160"/><line style="stroke:#A80036;stroke-width:1.5;" x1="77" x2="128" y1="168" y2="168"/><!--MD5=[7edf774feb77477e5b070cdc93672f6a]
link gRPCFilter to test--><path codeLine="6" d="M102.5,68.06 C102.5,86.68 102.5,110.38 102.5,127.67 " fill="none" id="gRPCFilter-test" style="stroke:#A80036;stroke-width:1.0;stroke-dasharray:7.0,7.0;"/><!--MD5=[ca6abc8f566cb0ba4ceb6e5b10e61457]
@startuml

Class gRPCFilter{
  filterImage:(NSString*)menuName
}

gRPCFilter..test

@enduml

PlantUML version 1.2021.01(Tue Feb 02 07:55:08 GMT 2021)
(GPL source distribution)
Java Runtime: Java(TM) SE Runtime Environment
JVM: Java HotSpot(TM) 64-Bit Server VM
Default Encoding: UTF-8
Language: en
Country: GB
--></g></svg>